<mxfile host="65bd71144e">
    <diagram id="NNsb2cRqyf47AFiUrAU3" name="Page-1">
        <mxGraphModel dx="2682" dy="1538" grid="1" gridSize="10" guides="1" tooltips="1" connect="1" arrows="1" fold="1" page="1" pageScale="1" pageWidth="850" pageHeight="1100" math="0" shadow="0">
            <root>
                <mxCell id="0"/>
                <mxCell id="1" parent="0"/>
                <mxCell id="28" style="edgeStyle=none;html=1;" parent="1" source="29" target="31" edge="1">
                    <mxGeometry relative="1" as="geometry"/>
                </mxCell>
                <mxCell id="29" value="Start" style="strokeWidth=2;html=1;shape=mxgraph.flowchart.terminator;whiteSpace=wrap;" parent="1" vertex="1">
                    <mxGeometry x="260.56" y="260" width="134" height="70" as="geometry"/>
                </mxCell>
                <mxCell id="30" style="edgeStyle=none;html=1;entryX=0.5;entryY=0;entryDx=0;entryDy=0;entryPerimeter=0;" parent="1" source="31" target="40" edge="1">
                    <mxGeometry relative="1" as="geometry">
                        <mxPoint x="352" y="573" as="targetPoint"/>
                    </mxGeometry>
                </mxCell>
                <mxCell id="59" style="edgeStyle=none;html=1;entryX=0;entryY=0.5;entryDx=0;entryDy=0;" parent="1" source="31" target="65" edge="1">
                    <mxGeometry relative="1" as="geometry">
                        <mxPoint x="620" y="515" as="targetPoint"/>
                    </mxGeometry>
                </mxCell>
                <mxCell id="31" value="User pick rock, paper, or scissors, and match with computer choice.&lt;br&gt;&lt;br&gt;Rock:1&lt;br&gt;Paper:2&lt;br&gt;Scissors:3&lt;br&gt;&lt;br&gt;If computer pick different option then user have pick, then the system will have to compare the different situiation&lt;br&gt;&lt;br&gt;Code will considerd it's equal or not.&lt;br&gt;&lt;br&gt;If is equal, then go through the &quot;ture&quot;, If equal, then go through the &quot;else&quot;." style="shape=parallelogram;html=1;strokeWidth=2;perimeter=parallelogramPerimeter;whiteSpace=wrap;rounded=1;arcSize=12;size=0.23;" parent="1" vertex="1">
                    <mxGeometry x="171.93" y="400" width="323.01" height="230" as="geometry"/>
                </mxCell>
                <mxCell id="32" style="edgeStyle=none;html=1;entryX=0;entryY=0.5;entryDx=0;entryDy=0;" parent="1" source="33" target="88" edge="1">
                    <mxGeometry relative="1" as="geometry">
                        <mxPoint x="1610" y="1150" as="targetPoint"/>
                    </mxGeometry>
                </mxCell>
                <mxCell id="96" style="edgeStyle=none;html=1;" edge="1" parent="1" source="33">
                    <mxGeometry relative="1" as="geometry">
                        <mxPoint x="1310" y="1360" as="targetPoint"/>
                    </mxGeometry>
                </mxCell>
                <mxCell id="33" value="&lt;div&gt;Counting score system start working, every 11 round count one game, and show up won, lost, tied rounds number. Once the Round number hit 11&lt;/div&gt;" style="shape=parallelogram;html=1;strokeWidth=2;perimeter=parallelogramPerimeter;whiteSpace=wrap;rounded=1;arcSize=12;size=0.23;" parent="1" vertex="1">
                    <mxGeometry x="1210" y="1035" width="200" height="130" as="geometry"/>
                </mxCell>
                <mxCell id="39" style="edgeStyle=none;html=1;" parent="1" source="40" target="33" edge="1">
                    <mxGeometry relative="1" as="geometry">
                        <mxPoint x="343.4949999999999" y="920" as="targetPoint"/>
                        <Array as="points">
                            <mxPoint x="330" y="1100"/>
                        </Array>
                    </mxGeometry>
                </mxCell>
                <mxCell id="40" value="&lt;div&gt;Computer had pick the same option then user. Counting draw,&amp;nbsp;&lt;/div&gt;" style="strokeWidth=2;html=1;shape=mxgraph.flowchart.decision;whiteSpace=wrap;" parent="1" vertex="1">
                    <mxGeometry x="230" y="730" width="206.87" height="150" as="geometry"/>
                </mxCell>
                <mxCell id="53" value="true" style="text;html=1;align=center;verticalAlign=middle;resizable=0;points=[];autosize=1;strokeColor=none;fillColor=none;" parent="1" vertex="1">
                    <mxGeometry x="520" y="490" width="40" height="20" as="geometry"/>
                </mxCell>
                <mxCell id="54" value="else" style="text;html=1;align=center;verticalAlign=middle;resizable=0;points=[];autosize=1;strokeColor=none;fillColor=none;" parent="1" vertex="1">
                    <mxGeometry x="330" y="670" width="40" height="20" as="geometry"/>
                </mxCell>
                <mxCell id="61" style="edgeStyle=none;html=1;" parent="1" target="68" edge="1">
                    <mxGeometry relative="1" as="geometry">
                        <mxPoint x="724.5" y="722.5" as="targetPoint"/>
                        <mxPoint x="724.5" y="590" as="sourcePoint"/>
                    </mxGeometry>
                </mxCell>
                <mxCell id="62" value="true" style="text;html=1;align=center;verticalAlign=middle;resizable=0;points=[];autosize=1;strokeColor=none;fillColor=none;" parent="1" vertex="1">
                    <mxGeometry x="730" y="630" width="40" height="20" as="geometry"/>
                </mxCell>
                <mxCell id="64" value="false" style="text;html=1;align=center;verticalAlign=middle;resizable=0;points=[];autosize=1;strokeColor=none;fillColor=none;" parent="1" vertex="1">
                    <mxGeometry x="850" y="490" width="40" height="20" as="geometry"/>
                </mxCell>
                <mxCell id="72" style="edgeStyle=none;html=1;" parent="1" source="65" target="69" edge="1">
                    <mxGeometry relative="1" as="geometry"/>
                </mxCell>
                <mxCell id="65" value="&lt;span&gt;If&amp;nbsp;&amp;nbsp;ROCK by computer. paper Selected by user&lt;br&gt;&lt;br&gt;&lt;/span&gt;If&amp;nbsp; Paper by computer. scissors Selected by user&lt;br&gt;&lt;span&gt;&lt;br&gt;&lt;/span&gt;If&amp;nbsp;&amp;nbsp;Scissors by computer. rock Selected by user&lt;span&gt;&lt;br&gt;&lt;/span&gt;" style="rhombus;whiteSpace=wrap;html=1;" parent="1" vertex="1">
                    <mxGeometry x="630" y="417.5" width="210" height="195" as="geometry"/>
                </mxCell>
                <mxCell id="83" style="edgeStyle=none;html=1;" edge="1" parent="1" source="68">
                    <mxGeometry relative="1" as="geometry">
                        <mxPoint x="720" y="1090" as="targetPoint"/>
                    </mxGeometry>
                </mxCell>
                <mxCell id="68" value="User count won one point" style="rhombus;whiteSpace=wrap;html=1;" parent="1" vertex="1">
                    <mxGeometry x="642.5" y="710" width="165" height="160" as="geometry"/>
                </mxCell>
                <mxCell id="71" value="" style="edgeStyle=none;html=1;exitX=0;exitY=0.5;exitDx=0;exitDy=0;entryX=0;entryY=0.5;entryDx=0;entryDy=0;" parent="1" source="69" target="69" edge="1">
                    <mxGeometry relative="1" as="geometry">
                        <mxPoint x="840" y="515" as="targetPoint"/>
                    </mxGeometry>
                </mxCell>
                <mxCell id="76" style="edgeStyle=none;html=1;" parent="1" source="69" target="74" edge="1">
                    <mxGeometry relative="1" as="geometry"/>
                </mxCell>
                <mxCell id="69" value="If ROCK by computer,&amp;nbsp; scissor Selected By user&lt;br&gt;&lt;br&gt;If&amp;nbsp; Paper by computer. rock Selected by user&lt;br&gt;&lt;br&gt;If&amp;nbsp; Scissor by computer. paper Selected by user" style="rhombus;whiteSpace=wrap;html=1;" parent="1" vertex="1">
                    <mxGeometry x="955" y="412.5" width="220" height="205" as="geometry"/>
                </mxCell>
                <mxCell id="84" style="edgeStyle=none;html=1;" edge="1" parent="1" source="74">
                    <mxGeometry relative="1" as="geometry">
                        <mxPoint x="1065" y="1100" as="targetPoint"/>
                    </mxGeometry>
                </mxCell>
                <mxCell id="74" value="&lt;span&gt;Computer count won one point&lt;/span&gt;" style="rhombus;whiteSpace=wrap;html=1;" parent="1" vertex="1">
                    <mxGeometry x="977.5" y="710" width="175" height="175" as="geometry"/>
                </mxCell>
                <mxCell id="79" value="true" style="text;html=1;align=center;verticalAlign=middle;resizable=0;points=[];autosize=1;strokeColor=none;fillColor=none;" parent="1" vertex="1">
                    <mxGeometry x="1060" y="640" width="40" height="20" as="geometry"/>
                </mxCell>
                <mxCell id="85" value="true" style="text;html=1;align=center;verticalAlign=middle;resizable=0;points=[];autosize=1;strokeColor=none;fillColor=none;" vertex="1" parent="1">
                    <mxGeometry x="715" y="1005" width="50" height="30" as="geometry"/>
                </mxCell>
                <mxCell id="86" value="true" style="text;html=1;align=center;verticalAlign=middle;resizable=0;points=[];autosize=1;strokeColor=none;fillColor=none;" vertex="1" parent="1">
                    <mxGeometry x="1060" y="1000" width="50" height="30" as="geometry"/>
                </mxCell>
                <mxCell id="87" value="true" style="text;html=1;align=center;verticalAlign=middle;resizable=0;points=[];autosize=1;strokeColor=none;fillColor=none;" vertex="1" parent="1">
                    <mxGeometry x="330" y="995" width="50" height="30" as="geometry"/>
                </mxCell>
                <mxCell id="99" style="edgeStyle=none;html=1;" edge="1" parent="1" source="88">
                    <mxGeometry relative="1" as="geometry">
                        <mxPoint x="1660" y="1440.0000000000002" as="targetPoint"/>
                    </mxGeometry>
                </mxCell>
                <mxCell id="88" value="If the total round hit 11, the won, lost, tied round counter will return to zero, and add one in the total full game play.&amp;nbsp;" style="shape=parallelogram;perimeter=parallelogramPerimeter;whiteSpace=wrap;html=1;fixedSize=1;" vertex="1" parent="1">
                    <mxGeometry x="1570" y="1047.5" width="180" height="105" as="geometry"/>
                </mxCell>
                <mxCell id="89" value="true" style="text;html=1;align=center;verticalAlign=middle;resizable=0;points=[];autosize=1;strokeColor=none;fillColor=none;" vertex="1" parent="1">
                    <mxGeometry x="1460" y="1080" width="50" height="30" as="geometry"/>
                </mxCell>
                <mxCell id="98" style="edgeStyle=none;html=1;entryX=-0.025;entryY=0.611;entryDx=0;entryDy=0;entryPerimeter=0;" edge="1" parent="1" source="95" target="101">
                    <mxGeometry relative="1" as="geometry">
                        <mxPoint x="2120" y="1440.0000000000002" as="targetPoint"/>
                    </mxGeometry>
                </mxCell>
                <mxCell id="95" value="Total game counter show 0&amp;nbsp; for every option." style="rhombus;whiteSpace=wrap;html=1;" vertex="1" parent="1">
                    <mxGeometry x="1230" y="1360" width="160" height="170" as="geometry"/>
                </mxCell>
                <mxCell id="97" value="else" style="text;html=1;align=center;verticalAlign=middle;resizable=0;points=[];autosize=1;strokeColor=none;fillColor=none;" vertex="1" parent="1">
                    <mxGeometry x="1260" y="1255" width="40" height="30" as="geometry"/>
                </mxCell>
                <mxCell id="100" value="true" style="text;html=1;align=center;verticalAlign=middle;resizable=0;points=[];autosize=1;strokeColor=none;fillColor=none;" vertex="1" parent="1">
                    <mxGeometry x="1660" y="1280" width="40" height="30" as="geometry"/>
                </mxCell>
                <mxCell id="102" style="edgeStyle=none;html=1;" edge="1" parent="1" source="101">
                    <mxGeometry relative="1" as="geometry">
                        <mxPoint x="2070" y="1370" as="targetPoint"/>
                    </mxGeometry>
                </mxCell>
                <mxCell id="101" value="Print the answer&lt;br&gt;and start a new round" style="ellipse;whiteSpace=wrap;html=1;" vertex="1" parent="1">
                    <mxGeometry x="2005" y="1380" width="145" height="110" as="geometry"/>
                </mxCell>
            </root>
        </mxGraphModel>
    </diagram>
</mxfile>